<svg width="24" height="24" viewBox="0 0 24 24" fill="none" xmlns="http://www.w3.org/2000/svg">
<path d="M22.9939 15.0476C22.9729 15.0196 22.9503 14.9935 22.9261 14.9684C22.2284 14.096 20.9672 13.9208 20.0878 14.581C18.8203 15.5151 16.6518 17.0871 15.928 17.6117L12.7664 17.3638L14.7008 16.9404C15.737 16.7897 16.4799 15.8754 16.435 14.7962C16.4347 14.7848 16.4339 14.7733 16.4328 14.7622C16.343 13.6838 15.4668 12.8708 14.395 12.8708H8.54464C8.06928 12.8708 7.62575 12.9924 7.22628 13.2321C7.21025 13.2419 7.19446 13.252 7.17894 13.2629L0.947659 17.6166C0.578143 17.8749 0.487815 18.384 0.746003 18.7532C1.00396 19.123 1.51335 19.2136 1.88258 18.9548L8.08775 14.6193C8.22599 14.5412 8.37566 14.5028 8.54488 14.5028H14.3952C14.6123 14.5028 14.7783 14.6574 14.8045 14.8805C14.8064 15.0769 14.7005 15.2952 14.4573 15.3257C14.4328 15.3287 14.4083 15.3327 14.384 15.3382L10.901 16.1001C10.6292 16.1597 10.4064 16.3534 10.3098 16.6143C10.2132 16.8756 10.2561 17.1678 10.4241 17.3898L11.3492 18.6143C11.4899 18.8007 11.7038 18.918 11.9367 18.9362L16.1 19.2627C16.2926 19.2766 16.4855 19.2235 16.6423 19.1101C16.6708 19.0894 19.5201 17.0271 21.0616 15.891C21.2376 15.7591 21.5176 15.8091 21.6599 15.9996C21.6757 16.0205 21.6926 16.0409 21.7103 16.06C21.8199 16.2393 21.778 16.4693 21.6042 16.5996L16.0823 20.7616C15.9199 20.8833 15.7506 20.9295 15.5571 20.9039L7.50271 19.8971C7.28286 19.8697 7.06189 19.9325 6.88939 20.0713L3.81458 22.5477C3.4633 22.8307 3.40803 23.3448 3.69078 23.6958C3.85189 23.896 4.08833 24 4.32697 24C4.50683 24 4.68777 23.9409 4.83828 23.8198L7.64347 21.5605L15.3477 22.5235C15.9621 22.6054 16.5542 22.4478 17.0628 22.0669L22.5855 17.905C23.4859 17.2296 23.669 15.948 22.9939 15.0476Z" fill="white"/>
<path d="M15.7278 2.83002C15.2769 2.83002 14.9115 3.19546 14.9115 3.64635V8.54432C14.9115 8.99521 15.2769 9.36065 15.7278 9.36065C16.1787 9.36065 16.5441 8.99521 16.5441 8.54432V3.64635C16.5441 3.19546 16.1787 2.83002 15.7278 2.83002Z" fill="white"/>
<path d="M18.1768 5.27877H13.2788C12.8279 5.27877 12.4625 5.64421 12.4625 6.0951C12.4625 6.54599 12.8279 6.91142 13.2788 6.91142H18.1768C18.6276 6.91142 18.9931 6.54599 18.9931 6.0951C18.9931 5.64421 18.6276 5.27877 18.1768 5.27877Z" fill="white"/>
<path d="M15.7278 0C12.3667 0 9.63281 2.73417 9.63281 6.09525C9.63281 9.45633 12.3667 12.1905 15.7278 12.1905C19.0886 12.1905 21.823 9.45638 21.823 6.09525C21.823 2.73412 19.0889 0 15.7278 0ZM15.7278 10.5578C13.2671 10.5578 11.2655 8.55595 11.2655 6.09525C11.2655 3.63455 13.2671 1.63266 15.7278 1.63266C18.1884 1.63266 20.1904 3.63455 20.1904 6.09525C20.1904 8.55595 18.1885 10.5578 15.7278 10.5578Z" fill="white"/>
</svg>
