<svg width="24" height="24" viewBox="0 0 24 24" fill="none" xmlns="http://www.w3.org/2000/svg">
<path d="M21.8898 3.34128C20.6794 2.11761 19.0442 1.44111 17.2855 1.43614C15.4753 1.43009 13.6613 2.11597 12.2078 3.33523C10.5548 1.87953 9.05947 1.16975 7.65139 1.16975C5.68489 1.16975 3.86038 1.94426 2.52636 3.33828C1.52371 4.34093 0.836707 5.65737 0.53891 7.14551C0.449753 7.59275 0.739535 8.02761 1.18682 8.11709C1.63353 8.20573 2.06891 7.91647 2.15839 7.46918C2.39179 6.30195 2.92269 5.27726 3.70658 4.49314C4.73868 3.41478 6.13986 2.82111 7.65144 2.82111C8.74658 2.82111 10.0732 3.55901 11.5804 4.99981C11.7493 5.16964 11.9714 5.26348 12.2057 5.26376C12.206 5.26376 12.2065 5.26376 12.2068 5.26376C12.4404 5.26376 12.6625 5.17048 12.8318 5.00122C14.0486 3.78443 15.6642 3.08754 17.266 3.08754C17.2713 3.08754 17.2762 3.08754 17.2812 3.08754C18.616 3.09111 19.8039 3.58076 20.7066 4.49314C21.7657 5.59929 22.349 7.04811 22.349 8.57342C22.349 10.0999 21.7525 11.5847 20.7292 12.6311L12.2202 20.8566L5.47293 14.3375C5.14513 14.0207 4.62247 14.0303 4.30541 14.3573C3.98863 14.6854 3.99772 15.2081 4.32552 15.5248L11.6466 22.5982C11.8065 22.7529 12.0135 22.8303 12.2202 22.8303C12.4268 22.8303 12.6338 22.7529 12.794 22.5985L21.8931 13.8022C23.2321 12.4335 24 10.5278 24 8.57337C24 6.62061 23.2538 4.76586 21.8898 3.34128Z" fill="white"/>
<path d="M22.5138 10.4726H15.8532C15.6259 10.4726 15.409 10.5658 15.2532 10.731L12.7494 13.3784L9.86559 6.83679C9.74175 6.55577 9.47203 6.36668 9.1657 6.34605C8.86102 6.32651 8.56683 6.47651 8.40633 6.73826L6.11588 10.4726H0.825703C0.369609 10.4726 0 10.8422 0 11.2983C0 11.7544 0.369609 12.124 0.825703 12.124H6.57773C6.8648 12.124 7.13152 11.9748 7.28152 11.7298L8.99016 8.94452L11.74 15.1818C11.8515 15.435 12.0824 15.6153 12.3548 15.6623C12.4016 15.6703 12.4487 15.6744 12.4955 15.6744C12.7206 15.6744 12.9383 15.5825 13.0955 15.4162L16.2089 12.1239H22.5138C22.9699 12.1239 23.3395 11.7543 23.3395 11.2982C23.3394 10.8422 22.9698 10.4726 22.5138 10.4726Z" fill="white"/>
</svg>
