<svg width="24" height="24" viewBox="0 0 24 24" fill="none" xmlns="http://www.w3.org/2000/svg">
<g clip-path="url(#clip0)">
<path d="M18.7816 12.9832V21.5798H5.21863V12.8067H3.70602V22.3361C3.70602 22.7539 4.0446 23.0924 4.46231 23.0924H19.538C19.9557 23.0924 20.2942 22.7538 20.2942 22.3361V12.9832H18.7816Z" fill="white"/>
<path d="M23.9976 11.5615C23.981 11.3533 23.8789 11.1612 23.7155 11.0308L12.4718 2.05601C12.1955 1.83565 11.804 1.83565 11.5282 2.05601L0.284481 11.0308C0.121121 11.1612 0.0190276 11.3533 0.00238695 11.5615C-0.0142537 11.7697 0.0561057 11.9757 0.196496 12.1302L2.44022 14.6008C2.58895 14.7647 2.79417 14.8487 3.00037 14.8487C3.1665 14.8487 3.33389 14.794 3.47283 14.6828L12.0001 7.85135L20.5269 14.6828C20.8393 14.9319 21.2913 14.897 21.5598 14.6008L23.8035 12.1302C23.9442 11.9757 24.0143 11.7697 23.9976 11.5615ZM20.918 13.0575L12.4728 6.2921C12.3349 6.18143 12.1675 6.12598 12.0001 6.12598C11.8327 6.12598 11.6654 6.18143 11.5272 6.2921L3.08179 13.0575L1.85812 11.71L12.0001 3.61451L22.1419 11.71L20.918 13.0575Z" fill="white"/>
<path d="M19.0085 0.907684H16.0335C15.6157 0.907684 15.2772 1.24626 15.2772 1.66397V5.9497H16.7898V2.42025H18.2523V8.21854H19.7649V1.66397C19.7649 1.24622 19.4263 0.907684 19.0085 0.907684Z" fill="white"/>
<path d="M12.0001 12.9831C11.5824 12.9831 11.2439 13.3217 11.2439 13.7394V18.8319C11.2439 19.2496 11.5824 19.5881 12.0001 19.5881C12.4178 19.5881 12.7562 19.2496 12.7564 18.8319V13.7394C12.7564 13.3217 12.4178 12.9831 12.0001 12.9831Z" fill="white"/>
<path d="M14.5463 15.5293H9.45394C9.03619 15.5293 8.69765 15.8679 8.69765 16.2856C8.69765 16.7033 9.03623 17.0419 9.45394 17.0419H14.5464C14.9641 17.0419 15.3027 16.7033 15.3027 16.2856C15.3027 15.8679 14.9641 15.5293 14.5463 15.5293Z" fill="white"/>
</g>
<defs>
<clipPath id="clip0">
<rect width="24" height="24" fill="white"/>
</clipPath>
</defs>
</svg>
