<svg width="24" height="24" viewBox="0 0 24 24" fill="none" xmlns="http://www.w3.org/2000/svg">
<path d="M17.5744 0H6.45308C5.99807 0 5.6293 0.368766 5.6293 0.823781V4.86038C5.6293 5.31539 5.99807 5.68416 6.45308 5.68416H17.5744C18.0294 5.68416 18.3981 5.31539 18.3981 4.86038V0.823781C18.3981 0.368766 18.0294 0 17.5744 0ZM16.7506 4.03659H7.27687V1.64761H16.7505V4.03659H16.7506Z" fill="white"/>
<path d="M16.3936 4.88802H14.746V8.67748H16.3936V4.88802Z" fill="white"/>
<path d="M9.25402 4.88802H7.60641V8.67748H9.25402V4.88802Z" fill="white"/>
<path d="M17.9863 7.85351H6.01373C5.25665 7.85351 4.64072 8.46944 4.64072 9.22652V22.627C4.64072 23.384 5.25665 24 6.01373 24H17.9863C18.7433 24 19.3593 23.384 19.3593 22.627V9.22652C19.3593 8.46944 18.7433 7.85351 17.9863 7.85351ZM17.7117 22.3524H6.28833V9.50112H17.7117V22.3524Z" fill="white"/>
<path d="M12 12.1647C11.545 12.1647 11.1762 12.5335 11.1762 12.9885V18.8649C11.1762 19.3199 11.545 19.6887 12 19.6887C12.455 19.6887 12.8238 19.3199 12.8238 18.8649V12.9885C12.8238 12.5335 12.455 12.1647 12 12.1647Z" fill="white"/>
<path d="M14.9382 15.103H9.06179C8.60677 15.103 8.23801 15.4718 8.23801 15.9268C8.23801 16.3818 8.60677 16.7506 9.06179 16.7506H14.9382C15.3935 16.7506 15.762 16.3818 15.762 15.9268C15.762 15.4718 15.3932 15.103 14.9382 15.103Z" fill="white"/>
</svg>
