<svg width="80" height="16" viewBox="0 0 80 16" fill="none" xmlns="http://www.w3.org/2000/svg">
<path d="M7.99998 2.14668L9.45332 6.62002H14.1533L10.3533 9.38002L11.8066 13.8533L7.99998 11.0933L4.19332 13.8533L5.64665 9.38002L1.84665 6.62002H6.54665L7.99998 2.14668Z" fill="#FFE848"/>
<path d="M24 2.14668L25.4533 6.62002H30.1533L26.3533 9.38002L27.8067 13.8533L24 11.0933L20.1933 13.8533L21.6467 9.38002L17.8467 6.62002H22.5467L24 2.14668Z" fill="#FFE848"/>
<path d="M40 2.14668L41.4533 6.62002H46.1533L42.3533 9.38002L43.8067 13.8533L40 11.0933L36.1933 13.8533L37.6467 9.38002L33.8467 6.62002H38.5467L40 2.14668Z" fill="#FFE848"/>
<path d="M56 2.14668L57.4533 6.62002H62.1533L58.3533 9.38002L59.8067 13.8533L56 11.0933L52.1933 13.8533L53.6467 9.38002L49.8467 6.62002H54.5467L56 2.14668Z" fill="#FFE848"/>
<path d="M72 2.14668L73.4533 6.62002H78.1533L74.3533 9.38002L75.8067 13.8533L72 11.0933L68.1933 13.8533L69.6467 9.38002L65.8467 6.62002H70.5467L72 2.14668Z" fill="#FFE848"/>
</svg>
