<svg width="24" height="24" viewBox="0 0 24 24" fill="none" xmlns="http://www.w3.org/2000/svg">
<path d="M6.15706 1.46015C5.87112 1.04465 5.3029 0.939699 4.88801 1.22531C4.25562 1.65998 3.75828 2.12507 3.36711 2.64646C3.06809 3.04523 3.14445 3.6104 3.53834 3.91551C3.70442 4.04418 3.90125 4.10653 4.09653 4.10653C4.36451 4.10653 4.62978 3.9891 4.80954 3.76401C5.11892 3.3771 5.51403 3.00965 5.92194 2.7292C6.17956 2.55215 6.31765 2.26621 6.31765 1.97573C6.31765 1.79779 6.26534 1.61803 6.15706 1.46015Z" fill="black"/>
<path d="M21.8507 4.65858C21.2488 2.70998 19.8535 1.22283 18.1278 0.683531C15.8994 -0.0397969 13.9441 0.423469 12.5701 1.04522C11.4882 0.367734 10.196 0 8.87279 0C7.4319 0 6.05392 0.423703 4.888 1.22527C4.33651 1.60458 3.82304 2.08003 3.40206 2.60198C3.3534 2.65795 3.31721 2.71209 3.28951 2.75925C2.30518 4.04897 1.78534 5.5763 1.78534 7.17872C1.78534 8.88853 2.39129 10.5418 3.49304 11.8394C3.52042 11.8796 3.55112 11.9225 3.58215 11.966C3.6144 12.0113 3.64665 12.056 3.67248 12.0949C3.6819 12.1089 3.69165 12.1226 3.70168 12.136C4.11292 12.6844 4.52115 14.7781 4.69543 15.6721C4.74137 15.9082 4.78182 16.1156 4.81468 16.2698C4.90107 16.7017 4.98896 17.1687 5.04615 17.6553C5.2375 19.3143 5.55746 20.6701 5.99247 21.6733C6.59748 23.1255 7.44887 23.9069 8.52325 23.9963C8.54851 23.9984 8.57406 23.9996 8.59928 23.9996H8.72096C10.0533 23.9996 10.7937 22.4669 11.3424 20.9672C11.3469 20.9544 11.3512 20.942 11.3552 20.9292L12.1056 18.5609L12.8381 20.9237C12.8426 20.9383 12.8472 20.9529 12.8527 20.9675C13.3692 22.3793 14.1342 24 15.4739 24H15.5956C15.6217 24 15.6482 23.9988 15.6744 23.9967C16.4129 23.9325 17.4508 23.4774 18.2012 21.6761C18.6091 20.7024 18.9096 19.4303 19.1478 17.6581C19.2056 17.1684 19.2935 16.7021 19.3778 16.2808C19.4125 16.1166 19.4529 15.9097 19.4988 15.6742C19.6728 14.7796 20.081 12.6854 20.4962 12.1318C22.1321 9.91697 22.6374 7.11998 21.8507 4.65858ZM19.0322 11.0415C18.4208 11.8576 18.0564 13.533 17.7075 15.3247C17.6637 15.5489 17.6253 15.7457 17.5904 15.9118C17.4964 16.3802 17.4006 16.8903 17.337 17.4296C17.1228 19.0236 16.8627 20.1484 16.5172 20.9722C16.2231 21.6785 15.8614 22.1241 15.5441 22.1749H15.5423C15.4437 22.0997 15.0839 21.7484 14.5744 20.3617L13.2427 16.0645C13.2375 16.0475 13.2317 16.0307 13.2257 16.0143C13.0492 15.5434 12.6121 15.2395 12.1123 15.2395C11.6125 15.2395 11.1758 15.5434 10.9993 16.0143C10.9938 16.0286 10.9887 16.0435 10.9838 16.0587L9.62106 20.3589C9.09878 21.7813 8.75931 22.1073 8.665 22.1749H8.64737C8.21298 22.1107 7.85406 21.3974 7.67186 20.96C7.30834 20.1217 7.02728 18.9067 6.85876 17.4445C6.79365 16.8918 6.69784 16.3814 6.60175 15.902C6.56889 15.7457 6.53026 15.5482 6.48648 15.3234C6.14064 13.5479 5.77956 11.8862 5.17759 11.0631C5.14473 11.0144 5.10582 10.9603 5.06715 10.9058C5.03523 10.8611 5.00326 10.8167 4.97772 10.7783C4.95704 10.7473 4.93454 10.7178 4.91017 10.6895C4.07214 9.71611 3.61042 8.46928 3.61042 7.17863C3.61042 5.97952 4.00098 4.83488 4.74076 3.86578C4.78276 3.81619 4.81468 3.76875 4.83995 3.72647C5.14473 3.35353 5.52742 3.00038 5.92225 2.72906C6.7825 2.13773 7.80268 1.82503 8.87279 1.82503C9.99948 1.82503 11.0894 2.18062 11.9414 2.82581C12.2246 3.04055 12.6066 3.07097 12.9193 2.90489C13.9849 2.34122 15.6549 1.79948 17.5739 2.42184C18.7529 2.79052 19.6761 3.80161 20.1099 5.20509C20.7213 7.11848 20.3171 9.3022 19.0322 11.0415Z" fill="white"/>
</svg>
