<svg width="24" height="24" viewBox="0 0 24 24" fill="none" xmlns="http://www.w3.org/2000/svg">
<g clip-path="url(#clip0)">
<path d="M20.3827 7.94404L16.0557 3.61701C15.7608 3.3224 15.2838 3.32217 14.989 3.6165L3.84436 14.736L4.91053 15.8047L15.5216 5.21751L18.7824 8.47865L8.19552 19.0894L9.26394 20.1556L20.3834 9.01072C20.6775 8.71583 20.6773 8.23836 20.3827 7.94404Z" fill="white"/>
<path d="M21.6659 3.39091L20.6094 2.3343C20.3633 2.08825 19.9814 2.04222 19.6841 2.22283L16.0363 4.43669L16.8194 5.72701L19.9608 3.82033L20.1797 4.03942L18.2733 7.18079L19.5636 7.96393L21.7774 4.31612C21.958 4.01884 21.912 3.63667 21.6659 3.39091Z" fill="white"/>
<path d="M10.672 20.498L3.50222 13.3282C3.20761 13.0333 2.72963 13.0333 2.43507 13.3282C2.14023 13.6228 2.14023 14.1008 2.43507 14.3953L9.60487 21.5651C9.75206 21.7125 9.94523 21.7862 10.1384 21.7862C10.3314 21.7862 10.5249 21.7125 10.672 21.5651C10.9669 21.2706 10.9669 20.7926 10.672 20.498Z" fill="white"/>
<path d="M10.4836 13.9073L3.44019 20.9766L4.5093 22.0418L11.5527 14.9724L10.4836 13.9073Z" fill="white"/>
<path d="M9.00065 12.4242L1.95726 19.4935L3.02637 20.5587L10.0698 13.4894L9.00065 12.4242Z" fill="white"/>
<path d="M6.26946 22.7117L1.28835 17.7303C0.993503 17.4357 0.51552 17.4353 0.220911 17.7303C-0.073698 18.0249 -0.073698 18.5026 0.220911 18.7975L5.20203 23.7789C5.34945 23.9263 5.54267 24 5.73584 24C5.92878 24 6.12228 23.9263 6.26942 23.7789C6.56407 23.4843 6.56407 23.0066 6.26946 22.7117Z" fill="white"/>
<path d="M23.7789 0.221224C23.4841 -0.0736193 23.0066 -0.0736193 22.7117 0.221224L20.0702 2.86272C19.7754 3.15733 19.7754 3.63531 20.0702 3.92987C20.2176 4.07729 20.4106 4.15098 20.6038 4.15098C20.797 4.15098 20.9902 4.07725 21.1374 3.92987L23.7789 1.28838C24.0737 0.993816 24.0737 0.515833 23.7789 0.221224Z" fill="white"/>
<path d="M8.75982 10.9879L7.6925 12.0552L11.9439 16.3066L13.0113 15.2393L8.75982 10.9879Z" fill="white"/>
</g>
<defs>
<clipPath id="clip0">
<rect width="24" height="24" fill="white"/>
</clipPath>
</defs>
</svg>
