<svg width="24" height="24" viewBox="0 0 24 24" fill="none" xmlns="http://www.w3.org/2000/svg">
<g clip-path="url(#clip0)">
<path d="M17.5017 1.14283H14.9236V2.73752H16.7044V6.29899C16.7044 8.98099 14.5223 11.1628 11.8406 11.1628H11.4685C8.78646 11.1628 6.60467 8.98071 6.60467 6.29899V2.73752H8.3854V1.14283H5.80732C5.36693 1.14283 5.00998 1.49978 5.00998 1.94017V6.29899C5.00998 9.86018 7.90728 12.7575 11.4685 12.7575H11.8406C15.4017 12.7575 18.299 9.86018 18.299 6.29899V1.94017C18.299 1.49978 17.9421 1.14283 17.5017 1.14283Z" fill="white"/>
<path d="M14.8439 0C14.4035 0 14.0465 0.356953 14.0465 0.797344V3.02991C14.0465 3.4703 14.4035 3.82725 14.8439 3.82725C15.2843 3.82725 15.6412 3.4703 15.6412 3.02991V0.797344C15.6412 0.356953 15.2843 0 14.8439 0Z" fill="white"/>
<path d="M8.54484 0C8.10445 0 7.7475 0.356953 7.7475 0.797344V3.02991C7.7475 3.4703 8.10445 3.82725 8.54484 3.82725C8.98523 3.82725 9.34218 3.4703 9.34218 3.02991V0.797344C9.34218 0.356953 8.98523 0 8.54484 0Z" fill="white"/>
<path d="M12.505 16.4522V11.9339H10.9103V16.4522H8.33223C6.25117 16.4522 4.55814 18.1452 4.55814 20.226C4.55814 22.3071 6.26312 24.0001 8.35881 24.0001H8.7309C10.812 24.0001 12.505 22.3071 12.505 20.226V18.0469H15.216V16.4522H12.505ZM10.9103 20.2257C10.9103 21.4273 9.9325 22.4052 8.7309 22.4052H8.35881C7.12187 22.4052 6.15282 21.4481 6.15282 20.2257C6.15282 19.0242 7.13064 18.0466 8.33223 18.0466H10.9103V20.2257Z" fill="white"/>
<path d="M16.9436 14.7511C15.5663 14.7511 14.4455 15.8717 14.4455 17.2495C14.4455 18.6268 15.566 19.7476 16.9436 19.7476C18.3211 19.7476 19.4419 18.6268 19.4419 17.2495C19.4419 15.8719 18.3214 14.7511 16.9436 14.7511ZM16.9436 18.1526C16.4455 18.1526 16.0402 17.7473 16.0402 17.2493C16.0402 16.7509 16.4455 16.3456 16.9436 16.3456C17.4419 16.3456 17.8472 16.7509 17.8472 17.2493C17.8472 17.7473 17.4419 18.1526 16.9436 18.1526Z" fill="white"/>
</g>
<defs>
<clipPath id="clip0">
<rect width="24" height="24" fill="white"/>
</clipPath>
</defs>
</svg>
