<svg width="24" height="24" viewBox="0 0 24 24" fill="none" xmlns="http://www.w3.org/2000/svg">
<path d="M22.4113 14.8076L9.16239 1.55867C7.08745 -0.515986 3.68424 -0.518705 1.56988 1.55867C-0.523252 3.6518 -0.523252 7.05773 1.56988 9.15086L14.8188 22.3998C15.8654 23.4464 17.24 23.9696 18.6149 23.9696C19.9895 23.9696 21.3644 23.4464 22.4113 22.4001C24.5041 20.3069 24.5041 16.9007 22.4113 14.8076ZM21.1252 21.1137C19.7409 22.4971 17.4889 22.4971 16.1049 21.1137L2.85628 7.86478C1.47224 6.48079 1.47224 4.22847 2.85052 2.85023C3.55116 2.16173 4.46617 1.81761 5.37752 1.81761C6.28616 1.81761 7.19114 2.1599 7.87631 2.84447L21.1252 16.0934C22.5089 17.4777 22.5089 19.7297 21.1252 21.1137Z" fill="white"/>
<path d="M22.411 1.5878C21.4035 0.58035 20.055 0.0252037 18.6149 0.0252037C17.1747 0.0252037 15.8262 0.580022 14.8187 1.5878L1.56986 14.8367C-0.523267 16.9299 -0.523267 20.3358 1.56986 22.4289C2.61645 23.4755 3.99103 23.9991 5.36598 23.9991C6.74093 23.9991 8.1155 23.4758 9.16176 22.4289L22.441 9.1497C23.4524 8.13859 24.0063 6.7928 23.9999 5.36029C23.9939 3.92833 23.4275 2.58648 22.411 1.5878ZM21.1552 7.86362L7.87597 21.1428C6.49164 22.5262 4.23965 22.5268 2.85594 21.1428C1.47222 19.7585 1.47222 17.5068 2.85594 16.1228L16.1049 2.87387C16.7961 2.18265 17.7041 1.83671 18.6127 1.83671C19.5235 1.83671 20.4352 2.18415 21.1307 2.87964C21.804 3.54147 22.1769 4.42526 22.1812 5.36811C22.1851 6.31162 21.8207 7.1978 21.1552 7.86362Z" fill="white"/>
<path d="M10.2471 11.4476C9.88331 11.0838 9.24661 11.0838 8.8828 11.4476C8.519 11.8114 8.519 12.4482 8.8828 12.812C9.24661 13.1758 9.88331 13.1758 10.2471 12.812C10.6413 12.4178 10.6413 11.8114 10.2471 11.4476Z" fill="white"/>
<path d="M10.352 11.338C9.93152 10.9196 9.19543 10.92 8.77552 11.3401C8.355 11.7609 8.355 12.4986 8.77552 12.9191C8.98594 13.1292 9.27545 13.2344 9.565 13.2344C9.85455 13.2344 10.144 13.1295 10.3542 12.9191C10.5795 12.6938 10.7001 12.4016 10.694 12.0966C10.6883 11.8065 10.5667 11.5372 10.352 11.338ZM10.1401 12.7048C9.83392 13.0107 9.29635 13.011 8.99016 12.7048C8.68397 12.3986 8.68397 11.861 8.99016 11.5548C9.14326 11.4017 9.35396 11.3253 9.565 11.3253C9.77603 11.3253 9.98702 11.4017 10.1401 11.5548L10.1444 11.5591C10.2993 11.7019 10.3869 11.895 10.3912 12.103C10.3957 12.3246 10.3066 12.5383 10.1401 12.7048Z" fill="white"/>
<path d="M12.5513 13.7517C12.1875 13.3879 11.5508 13.3879 11.187 13.7517C10.8232 14.1155 10.8232 14.7522 11.187 15.116C11.5508 15.4798 12.1875 15.4798 12.5513 15.116C12.9454 14.7521 12.9454 14.1155 12.5513 13.7517Z" fill="white"/>
<path d="M12.6565 13.6422C12.4549 13.4418 12.1681 13.327 11.8691 13.327C11.569 13.327 11.2813 13.4425 11.0797 13.6444C10.878 13.8463 10.7625 14.1337 10.7625 14.4339C10.7625 14.734 10.8778 15.0217 11.0797 15.2233C11.2816 15.425 11.5693 15.5408 11.8691 15.5408C12.169 15.5408 12.457 15.425 12.6541 15.227C12.873 15.0251 12.9985 14.7358 12.9985 14.4336C12.9985 14.1325 12.8739 13.8441 12.6565 13.6422ZM12.4442 15.0087C12.1381 15.3148 11.6008 15.3148 11.2943 15.0087C11.1491 14.8634 11.066 14.654 11.066 14.4338C11.066 14.2137 11.1491 14.0042 11.2943 13.859C11.4474 13.7059 11.6581 13.6292 11.8691 13.6292C12.0802 13.6292 12.2912 13.7058 12.4442 13.8587L12.4488 13.8629C12.6052 14.0079 12.6953 14.2161 12.6953 14.4338C12.6953 14.6515 12.6053 14.8598 12.4442 15.0087Z" fill="white"/>
<path d="M12.8241 8.87058C12.4603 8.50678 11.8236 8.50678 11.4598 8.87058C11.096 9.23439 11.096 9.8711 11.4598 10.2349C11.8236 10.5987 12.4603 10.5987 12.8241 10.2349C13.1879 9.8711 13.188 9.23439 12.8241 8.87058Z" fill="white"/>
<path d="M12.9315 8.76315C12.511 8.34263 11.773 8.34263 11.3525 8.76315C10.932 9.18367 10.932 9.9213 11.3525 10.3418C11.5626 10.5522 11.8522 10.6574 12.142 10.6574C12.4318 10.6574 12.7214 10.5522 12.9315 10.3418C13.3517 9.9213 13.3517 9.18367 12.9315 8.76315ZM12.7168 10.1278C12.4261 10.4182 11.8573 10.4182 11.5669 10.1278C11.2607 9.8216 11.2607 9.28403 11.5669 8.97784C11.72 8.82474 11.931 8.74834 12.142 8.74834C12.353 8.74834 12.564 8.82474 12.7168 8.97784C13.023 9.28431 13.023 9.82155 12.7168 10.1278Z" fill="white"/>
<path d="M15.1283 11.1746C14.7645 10.8108 14.1278 10.8108 13.764 11.1746C13.4002 11.5384 13.4002 12.1751 13.764 12.5389C14.1278 12.9027 14.7645 12.9027 15.1283 12.5389C15.5224 12.1751 15.5224 11.5687 15.1283 11.1746Z" fill="white"/>
<path d="M15.2357 11.0674C15.0338 10.8658 14.7463 10.75 14.4462 10.75C14.146 10.75 13.8583 10.8655 13.6567 11.0674C13.4551 11.2694 13.3393 11.5568 13.3393 11.8569C13.3393 12.1571 13.4548 12.4448 13.6567 12.6464C13.8586 12.848 14.1463 12.9638 14.4462 12.9638C14.746 12.9638 15.034 12.848 15.2311 12.65C15.4473 12.4505 15.5695 12.1804 15.5755 11.8893C15.5816 11.5847 15.4609 11.2927 15.2357 11.0674ZM15.0213 12.4317C14.7151 12.7379 14.1775 12.7379 13.8713 12.4317C13.7261 12.2865 13.6427 12.077 13.6427 11.8569C13.6427 11.6368 13.7261 11.4273 13.8713 11.2821C14.0242 11.129 14.2355 11.0522 14.4462 11.0522C14.6569 11.0522 14.8682 11.1289 15.0213 11.2817C15.1877 11.4479 15.2769 11.6616 15.2723 11.8833C15.2681 12.0913 15.1805 12.2847 15.0213 12.4317Z" fill="white"/>
</svg>
